<?xml version="1.0" standalone="no"?><svg xmlns="http://www.w3.org/2000/svg" viewBox="0 0 1440 320"><path fill="#f2f4f8" fill-opacity="1" d="M0,288L34.3,266.7C68.6,245,137,203,206,197.3C274.3,192,343,224,411,234.7C480,245,549,235,617,224C685.7,213,754,203,823,186.7C891.4,171,960,149,1029,160C1097.1,171,1166,213,1234,192C1302.9,171,1371,85,1406,42.7L1440,0L1440,320L1405.7,320C1371.4,320,1303,320,1234,320C1165.7,320,1097,320,1029,320C960,320,891,320,823,320C754.3,320,686,320,617,320C548.6,320,480,320,411,320C342.9,320,274,320,206,320C137.1,320,69,320,34,320L0,320Z"></path></svg>